<svg width="226" height="127" viewBox="0 0 226 127" fill="none" xmlns="http://www.w3.org/2000/svg">
<g id="logo-7 1">
<path id="Vector" d="M81.25 56.0305H85.0569V71.3959H81.25V56.0305ZM86.567 65.5943C86.567 61.7941 88.9019 59.5267 92.5058 59.5267C96.1097 59.5267 98.4446 61.7941 98.4446 65.5943C98.4446 69.3945 96.1605 71.6746 92.5058 71.6746C88.8512 71.6746 86.567 69.4578 86.567 65.5943ZM94.625 65.5943C94.625 63.5042 93.8002 62.2755 92.5058 62.2755C91.2115 62.2755 90.3993 63.5422 90.3993 65.5943C90.3993 67.6464 91.1988 68.8878 92.5058 68.8878C93.8129 68.8878 94.625 67.7224 94.625 65.607V65.5943ZM99.8786 72.1433H103.533C103.707 72.529 104.001 72.8484 104.372 73.0538C104.742 73.2592 105.169 73.3397 105.589 73.2834C107.036 73.2834 107.797 72.498 107.797 71.3579V69.2298H107.721C107.418 69.8821 106.925 70.4286 106.308 70.7989C105.69 71.1692 104.976 71.3463 104.257 71.3073C101.477 71.3073 99.6375 69.1918 99.6375 65.5563C99.6375 61.9208 101.389 59.628 104.307 59.628C105.049 59.599 105.782 59.797 106.408 60.1954C107.034 60.5939 107.523 61.1738 107.81 61.8575V59.742H111.617V71.2693C111.617 74.0434 109.167 75.7662 105.551 75.7662C102.188 75.7662 100.094 74.2588 99.8786 72.156V72.1433ZM107.81 65.5817C107.81 63.7322 106.959 62.5668 105.614 62.5668C104.269 62.5668 103.444 63.7196 103.444 65.5817C103.444 67.4438 104.257 68.4951 105.614 68.4951C106.972 68.4951 107.81 67.4691 107.81 65.5943V65.5817ZM113.051 65.5817C113.051 61.7815 115.385 59.514 118.989 59.514C122.593 59.514 124.941 61.7815 124.941 65.5817C124.941 69.3818 122.657 71.662 118.989 71.662C115.322 71.662 113.051 69.4578 113.051 65.5943V65.5817ZM121.109 65.5817C121.109 63.4916 120.284 62.2628 118.989 62.2628C117.695 62.2628 116.946 63.5422 116.946 65.607C116.946 67.6718 117.746 68.9005 119.04 68.9005C120.334 68.9005 121.109 67.7224 121.109 65.607V65.5817ZM126.387 56.9806C126.377 56.5969 126.482 56.2189 126.687 55.8945C126.893 55.5701 127.19 55.3139 127.542 55.1584C127.893 55.0029 128.283 54.9551 128.662 55.021C129.041 55.0869 129.391 55.2637 129.669 55.5288C129.947 55.7939 130.14 56.1354 130.224 56.5101C130.307 56.8848 130.277 57.2757 130.138 57.6334C129.998 57.9911 129.755 58.2993 129.44 58.5191C129.125 58.7389 128.751 58.8603 128.367 58.868C128.112 58.8855 127.857 58.8502 127.616 58.7643C127.376 58.6784 127.155 58.5438 126.97 58.3689C126.784 58.194 126.636 57.9827 126.536 57.7481C126.436 57.5136 126.385 57.2609 126.387 57.0059V56.9806ZM126.387 59.7674H130.194V71.3959H126.387V59.7674ZM144.014 65.5817C144.014 69.3818 142.326 71.548 139.433 71.548C138.691 71.5955 137.952 71.4145 137.317 71.0293C136.681 70.6442 136.179 70.0735 135.879 69.3945H135.803V75.1201H131.996V59.742H135.803V61.8195H135.879C136.165 61.1293 136.658 60.5437 137.289 60.1426C137.92 59.7414 138.66 59.5441 139.407 59.5774C142.326 59.628 144.064 61.8068 144.064 65.607L144.014 65.5817ZM140.207 65.5817C140.207 63.7322 139.356 62.5542 138.024 62.5542C136.692 62.5542 135.841 63.7449 135.829 65.5817C135.816 67.4184 136.692 68.5965 138.024 68.5965C139.356 68.5965 140.207 67.4438 140.207 65.607V65.5817ZM150.549 59.5014C153.709 59.5014 155.625 60.9961 155.714 63.3902H152.249C152.249 62.5668 151.564 62.0475 150.511 62.0475C149.457 62.0475 148.988 62.4528 148.988 63.0482C148.988 63.6436 149.407 63.8336 150.257 64.0109L152.693 64.5049C155.016 64.999 156.005 65.9363 156.005 67.6971C156.005 70.1039 153.81 71.6493 150.574 71.6493C147.338 71.6493 145.219 70.1039 145.054 67.7351H148.721C148.836 68.5965 149.521 69.1032 150.638 69.1032C151.754 69.1032 152.262 68.7358 152.262 68.1278C152.262 67.5198 151.907 67.3931 150.993 67.2031L148.798 66.7344C146.526 66.2657 145.333 65.0623 145.333 63.2889C145.359 61.0088 147.402 59.5267 150.549 59.5267V59.5014ZM168.708 71.3706H165.04V69.2045H164.964C164.763 69.9318 164.318 70.5683 163.704 71.0084C163.09 71.4485 162.344 71.6657 161.589 71.624C161.01 71.6568 160.432 71.5653 159.892 71.3557C159.352 71.1461 158.863 70.8232 158.459 70.4089C158.055 69.9946 157.745 69.4986 157.549 68.9543C157.353 68.4099 157.277 67.83 157.325 67.2537V59.742H161.132V66.3797C161.132 67.7604 161.843 68.4951 163.023 68.4951C163.3 68.4957 163.573 68.4372 163.825 68.3236C164.078 68.2099 164.303 68.0438 164.485 67.8363C164.668 67.6287 164.804 67.3846 164.884 67.1203C164.965 66.856 164.988 66.5776 164.952 66.3037V59.742H168.759L168.708 71.3706ZM170.548 59.742H174.228V61.9841H174.304C174.506 61.2665 174.941 60.636 175.54 60.1913C176.139 59.7467 176.869 59.5129 177.616 59.5267C178.376 59.466 179.13 59.6929 179.73 60.1623C180.329 60.6318 180.73 61.3093 180.852 62.0602H180.928C181.158 61.3013 181.635 60.6405 182.283 60.1818C182.931 59.7231 183.713 59.4927 184.507 59.5267C185.024 59.5093 185.54 59.6009 186.02 59.7954C186.5 59.99 186.933 60.2831 187.292 60.6559C187.651 61.0286 187.928 61.4726 188.104 61.9589C188.28 62.4453 188.351 62.9632 188.313 63.4789V71.3959H184.507V64.4923C184.507 63.2255 183.936 62.6428 182.87 62.6428C182.632 62.6408 182.397 62.6897 182.179 62.7863C181.962 62.8828 181.768 63.0247 181.611 63.2024C181.453 63.38 181.336 63.5894 181.266 63.8163C181.196 64.0432 181.176 64.2823 181.207 64.5176V71.3959H177.591V64.4416C177.591 63.2762 177.02 62.6428 175.979 62.6428C175.739 62.6429 175.501 62.6939 175.282 62.7924C175.063 62.8908 174.867 63.0346 174.707 63.2141C174.548 63.3937 174.428 63.605 174.357 63.834C174.285 64.0631 174.263 64.3047 174.291 64.5429V71.3959H170.484L170.548 59.742Z" fill="#1E1B1B"/>
<path id="Vector_2" d="M70.6035 56.7276C69.9578 55.2536 69.103 53.8799 68.0656 52.6487C66.532 50.7744 64.6181 49.2455 62.45 48.1627C60.2818 47.0799 57.9085 46.4678 55.4862 46.3666C53.064 46.2653 50.6477 46.6773 48.3965 47.5754C46.1453 48.4735 44.1101 49.8374 42.4249 51.5772C40.7397 53.317 39.4428 55.3934 38.6194 57.6696C37.796 59.9458 37.4649 62.3703 37.6478 64.7835C37.8307 67.1967 38.5235 69.5438 39.6806 71.6705C40.8377 73.7971 42.4329 75.655 44.3611 77.1219C45.5984 78.082 46.9655 78.8624 48.4219 79.44C50.4637 80.2753 52.6489 80.7055 54.8556 80.7068C59.4104 80.6967 63.7755 78.8843 66.9939 75.6668C70.2123 72.4494 72.0215 68.0894 72.0248 63.5426C72.0281 61.1972 71.5442 58.8767 70.6035 56.7276ZM54.8429 49.8492C56.8244 49.849 58.7821 50.2814 60.5786 51.116C60.1405 51.3049 59.6799 51.4369 59.2081 51.5086C57.6557 51.733 56.2175 52.4525 55.1083 53.5597C53.9991 54.6669 53.2783 56.1026 53.0536 57.6523C52.955 58.5214 52.559 59.33 51.9325 59.9415C51.306 60.553 50.4874 60.9301 49.6147 61.0091C48.0622 61.2334 46.6241 61.9529 45.5148 63.0602C44.4056 64.1674 43.6849 65.603 43.4602 67.1527C43.3841 67.9792 43.0309 68.7558 42.4577 69.3569C41.4687 67.2709 41.0244 64.9691 41.1662 62.6656C41.308 60.3622 42.0312 58.132 43.2685 56.1826C44.5058 54.2331 46.2171 52.6278 48.243 51.5161C50.2689 50.4043 52.5437 49.8222 54.8556 49.8239L54.8429 49.8492ZM44.3484 72.4097C44.5007 72.2703 44.653 72.1437 44.8053 71.9917C45.9342 70.899 46.6589 69.4567 46.861 67.9001C46.943 67.0251 47.3343 66.2078 47.965 65.5947C48.5719 64.9641 49.3888 64.5766 50.2619 64.5053C51.8143 64.281 53.2525 63.5615 54.3617 62.4542C55.4709 61.347 56.1917 59.9114 56.4164 58.3616C56.4713 57.4465 56.8647 56.5842 57.5204 55.9422C58.1423 55.3238 58.9669 54.9505 59.8426 54.8908C61.2689 54.6949 62.599 54.062 63.6496 53.0794C64.8458 54.0701 65.8593 55.2618 66.6443 56.6009C66.5961 56.6659 66.5408 56.7254 66.4794 56.7782C65.8737 57.4144 65.0578 57.8103 64.1825 57.893C62.6285 58.1134 61.1881 58.8316 60.0782 59.9395C58.9683 61.0475 58.2488 62.4853 58.028 64.0366C57.9386 64.9086 57.5499 65.723 56.9278 66.3417C56.3056 66.9604 55.4884 67.3454 54.6145 67.4314C53.0575 67.654 51.6139 68.3721 50.4983 69.4789C49.3827 70.5857 48.6545 72.0222 48.4219 73.5751C48.3536 74.1942 48.1406 74.7886 47.8001 75.3105C46.4981 74.5388 45.332 73.5588 44.3484 72.4097ZM54.8429 77.2993C53.5552 77.3006 52.2737 77.1216 51.0359 76.7672C51.4594 75.9793 51.7346 75.1207 51.8481 74.2338C51.937 73.3637 52.3239 72.5508 52.9435 71.9324C53.563 71.3139 54.3773 70.9277 55.2489 70.8389C56.8037 70.6171 58.2447 69.8988 59.3564 68.7913C60.4682 67.6839 61.1908 66.2469 61.4162 64.6953C61.5051 63.8252 61.892 63.0123 62.5115 62.3939C63.1311 61.7754 63.9454 61.3892 64.817 61.3005C65.987 61.1485 67.1022 60.7137 68.0656 60.0337C68.6005 62.0578 68.6639 64.1774 68.2508 66.2297C67.8378 68.2821 66.9592 70.2127 65.6826 71.8735C64.406 73.5343 62.7653 74.8812 60.8863 75.8107C59.0073 76.7402 56.9399 77.2278 54.8429 77.2359V77.2993Z" fill="#1E1B1B"/>
</g>
</svg>
