<svg width="226" height="128" viewBox="0 0 226 128" fill="none" xmlns="http://www.w3.org/2000/svg">
<g id="logo-6">
<path id="Vector" d="M70.197 54.0293H74.004V72.5079H70.197V54.0293Z" fill="#1E1B1B"/>
<path id="Vector_2" d="M76.1359 66.1774C76.1359 64.848 76.5276 63.5484 77.2613 62.4436C77.9951 61.3387 79.0378 60.4782 80.2574 59.9712C81.4769 59.4642 82.8184 59.3335 84.1118 59.5957C85.4051 59.8579 86.5921 60.5011 87.5223 61.4439C88.4525 62.3866 89.084 63.5865 89.3367 64.8913C89.5894 66.1962 89.4521 67.5473 88.942 68.7733C88.4319 69.9994 87.5721 71.0453 86.4715 71.7783C85.3709 72.5114 84.0791 72.8987 82.7599 72.8911C81.8849 72.898 81.0173 72.7288 80.2081 72.3933C79.3988 72.0579 78.6642 71.563 78.0472 70.9377C77.4303 70.3124 76.9434 69.5692 76.6152 68.7518C76.287 67.9344 76.124 67.0592 76.1359 66.1774ZM85.6785 66.1774C85.6636 65.6043 85.4813 65.0483 85.1544 64.579C84.8275 64.1097 84.3706 63.748 83.8408 63.539C83.3109 63.3301 82.7317 63.2832 82.1756 63.4042C81.6195 63.5252 81.1111 63.8088 80.714 64.2194C80.317 64.6301 80.0489 65.1496 79.9433 65.713C79.8377 66.2764 79.8993 66.8586 80.1203 67.3869C80.3414 67.9152 80.7121 68.3662 81.1861 68.6833C81.6601 69.0004 82.2163 69.1696 82.7853 69.1698C83.1727 69.1774 83.5574 69.1044 83.9155 68.9554C84.2736 68.8064 84.5974 68.5845 84.8665 68.3036C85.1357 68.0228 85.3445 67.689 85.4798 67.3232C85.6152 66.9573 85.6742 66.5673 85.6532 66.1774H85.6785Z" fill="#1E1B1B"/>
<path id="Vector_3" d="M104.447 59.8479V71.8813C104.447 76.1269 101.147 77.93 97.8099 77.93C96.6327 78.0274 95.452 77.7917 94.4005 77.2495C93.349 76.7073 92.4686 75.88 91.8584 74.8609L95.0689 72.9939C95.3291 73.5225 95.7429 73.9586 96.2553 74.2442C96.7676 74.5298 97.3542 74.6512 97.9368 74.5924C98.3079 74.6385 98.6846 74.6013 99.0398 74.4836C99.3951 74.3659 99.7201 74.1706 99.9917 73.9115C100.263 73.6525 100.475 73.3362 100.611 72.9852C100.747 72.6343 100.805 72.2573 100.779 71.8813V70.7176C100.336 71.2589 99.7742 71.6887 99.1376 71.9728C98.501 72.257 97.8074 72.3876 97.112 72.3545C95.4292 72.3545 93.8154 71.6808 92.6255 70.4817C91.4356 69.2826 90.7671 67.6563 90.7671 65.9605C90.7671 64.2647 91.4356 62.6384 92.6255 61.4393C93.8154 60.2402 95.4292 59.5666 97.112 59.5666C97.8074 59.5334 98.501 59.6641 99.1376 59.9482C99.7742 60.2324 100.336 60.6621 100.779 61.2034V59.9246L104.447 59.8479ZM100.779 65.9222C100.805 65.3103 100.648 64.7049 100.329 64.1836C100.01 63.6624 99.5437 63.2492 98.9899 62.9972C98.4361 62.7451 97.8201 62.6658 97.2212 62.7694C96.6223 62.873 96.0679 63.1547 95.6292 63.5784C95.1905 64.0021 94.8876 64.5484 94.7594 65.1469C94.6312 65.7455 94.6837 66.369 94.91 66.9373C95.1363 67.5056 95.5261 67.9927 96.0293 68.3359C96.5325 68.6792 97.1261 68.8629 97.7338 68.8634C98.1303 68.8922 98.5283 68.8368 98.9023 68.7009C99.2763 68.565 99.6178 68.3516 99.9048 68.0744C100.192 67.7972 100.418 67.4625 100.569 67.0918C100.719 66.721 100.791 66.3226 100.779 65.9222Z" fill="#1E1B1B"/>
<path id="Vector_4" d="M106.591 66.1775C106.591 64.8491 106.982 63.5506 107.715 62.4463C108.447 61.342 109.489 60.4815 110.707 59.9737C111.925 59.4659 113.265 59.3337 114.558 59.5938C115.85 59.8539 117.037 60.4946 117.968 61.4348C118.9 62.375 119.533 63.5724 119.789 64.8756C120.044 66.1788 119.911 67.5291 119.404 68.7556C118.898 69.9822 118.042 71.0298 116.945 71.766C115.848 72.5021 114.559 72.8937 113.24 72.8912C112.364 72.8998 111.494 72.7319 110.683 72.3974C109.871 72.0628 109.134 71.5684 108.515 70.9431C107.896 70.3178 107.407 69.5742 107.076 68.7559C106.746 67.9375 106.581 67.0609 106.591 66.1775ZM116.134 66.1775C116.119 65.6038 115.936 65.0474 115.609 64.5778C115.281 64.1083 114.823 63.7466 114.293 63.538C113.762 63.3294 113.183 63.2833 112.626 63.4053C112.07 63.5274 111.561 63.8122 111.165 64.2241C110.768 64.6361 110.501 65.1567 110.397 65.721C110.293 66.2852 110.356 66.8678 110.579 67.3959C110.802 67.924 111.175 68.374 111.651 68.6896C112.126 69.0051 112.684 69.1722 113.253 69.1699C113.641 69.1775 114.025 69.1045 114.383 68.9555C114.741 68.8065 115.065 68.5846 115.334 68.3037C115.604 68.0229 115.812 67.6891 115.948 67.3233C116.083 66.9574 116.142 66.5674 116.121 66.1775H116.134Z" fill="#1E1B1B"/>
<path id="Vector_5" d="M121.654 56.4589C121.654 56.0087 121.786 55.5686 122.034 55.1943C122.283 54.8199 122.635 54.5282 123.048 54.3559C123.461 54.1836 123.915 54.1385 124.353 54.2264C124.791 54.3142 125.194 54.531 125.51 54.8493C125.826 55.1677 126.041 55.5732 126.128 56.0148C126.215 56.4563 126.17 56.914 125.999 57.33C125.828 57.7459 125.539 58.1014 125.167 58.3515C124.796 58.6016 124.359 58.7351 123.913 58.7351C123.316 58.7285 122.745 58.4865 122.323 58.0611C121.9 57.6356 121.66 57.0605 121.654 56.4589ZM122.022 59.8477H125.829V72.5077H122.022V59.8477Z" fill="#1E1B1B"/>
<path id="Vector_6" d="M142.123 66.1772C142.165 67.0191 142.042 67.8613 141.761 68.6552C141.479 69.4491 141.045 70.179 140.482 70.803C139.92 71.4269 139.24 71.9326 138.483 72.291C137.726 72.6493 136.905 72.8532 136.07 72.8908C135.36 72.9384 134.65 72.8239 133.991 72.556C133.331 72.2881 132.741 71.8736 132.263 71.3435V77.5968H128.456V59.8471H132.263V61.0364C132.741 60.5079 133.332 60.0953 133.992 59.8296C134.651 59.5638 135.361 59.4518 136.07 59.5019C136.902 59.5396 137.719 59.7423 138.474 60.0982C139.228 60.4541 139.906 60.9563 140.468 61.5762C141.03 62.196 141.466 62.9214 141.749 63.7108C142.033 64.5003 142.16 65.3383 142.123 66.1772ZM138.316 66.1772C138.301 65.5832 138.112 65.007 137.774 64.5206C137.435 64.0342 136.961 63.6594 136.412 63.4431C135.863 63.2268 135.263 63.1786 134.687 63.3046C134.111 63.4306 133.584 63.7252 133.173 64.1515C132.763 64.5777 132.486 65.1166 132.378 65.7007C132.27 66.2847 132.335 66.8879 132.566 67.4347C132.797 67.9815 133.182 68.4475 133.675 68.7743C134.167 69.1011 134.744 69.2742 135.334 69.2718C135.737 69.2891 136.14 69.2202 136.516 69.0695C136.891 68.9189 137.231 68.69 137.513 68.3978C137.794 68.1056 138.011 67.7567 138.15 67.374C138.288 66.9913 138.345 66.5834 138.316 66.1772Z" fill="#1E1B1B"/>
<path id="Vector_7" d="M153.708 68.7099C153.708 71.6256 151.17 72.866 148.48 72.866C147.383 72.9655 146.281 72.7312 145.317 72.1932C144.354 71.6552 143.572 70.8383 143.074 69.8481L146.348 67.981C146.478 68.4373 146.759 68.8349 147.145 69.1073C147.531 69.3796 147.997 69.5102 148.467 69.4772C149.368 69.4772 149.825 69.1959 149.825 68.6844C149.825 67.2905 143.645 68.0322 143.645 63.6459C143.645 60.8837 145.955 59.5026 148.569 59.5026C149.563 59.4578 150.55 59.685 151.426 60.1601C152.301 60.6351 153.033 61.3404 153.543 62.2009L150.269 63.94C150.125 63.6101 149.888 63.3295 149.589 63.1321C149.289 62.9346 148.939 62.8288 148.582 62.8275C147.922 62.8275 147.528 63.0833 147.528 63.5308C147.528 64.9887 153.708 64.0296 153.708 68.7099Z" fill="#1E1B1B"/>
<path id="Vector_8" d="M167.502 59.8477V72.5077H163.695V71.3184C163.263 71.8449 162.713 72.2615 162.092 72.5347C161.47 72.8079 160.794 72.9301 160.117 72.8913C157.579 72.8913 155.409 71.0627 155.409 67.6483V59.8477H159.216V67.0728C159.186 67.3749 159.221 67.6799 159.32 67.9668C159.418 68.2537 159.577 68.5156 159.786 68.7345C159.995 68.9533 160.248 69.1239 160.529 69.2345C160.809 69.345 161.11 69.3928 161.411 69.3747C162.781 69.3747 163.746 68.5562 163.746 66.8171V59.8477H167.502Z" fill="#1E1B1B"/>
<path id="Vector_9" d="M189.074 64.7325V72.5076H185.267V65.065C185.267 63.7862 184.671 62.9934 183.465 62.9934C182.26 62.9934 181.498 63.8757 181.498 65.3719V72.5076H177.692V65.065C177.692 63.7862 177.095 62.9934 175.89 62.9934C174.684 62.9934 173.923 63.8757 173.923 65.3719V72.5076H170.116V59.8475H173.923V61.0112C174.317 60.4971 174.832 60.09 175.421 59.8265C176.01 59.5631 176.655 59.4517 177.298 59.5023C177.942 59.4684 178.583 59.6039 179.16 59.8953C179.736 60.1868 180.227 60.6242 180.585 61.1647C181.003 60.6 181.556 60.1514 182.193 59.8607C182.83 59.57 183.53 59.4466 184.227 59.5023C187.196 59.5023 189.074 61.5739 189.074 64.7325Z" fill="#1E1B1B"/>
<path id="Vector_10" d="M47.5203 50.7044V45.2695H30.516V82.6103H47.5203V77.1754C44.0369 77.1754 40.6963 75.781 38.2332 73.2988C35.7701 70.8167 34.3864 67.4502 34.3864 63.9399C34.3864 60.4296 35.7701 57.0631 38.2332 54.581C40.6963 52.0989 44.0369 50.7044 47.5203 50.7044Z" fill="#1E1B1B"/>
<path id="Vector_11" d="M47.5204 50.7041V77.1751C51.0037 77.1751 54.3444 75.7807 56.8075 73.2985C59.2705 70.8164 60.6543 67.4499 60.6543 63.9396C60.6543 60.4293 59.2705 57.0628 56.8075 54.5807C54.3444 52.0986 51.0037 50.7041 47.5204 50.7041Z" fill="#1E1B1B"/>
<path id="Vector_12" d="M192.272 59.7712C193.814 59.7712 195.064 58.5116 195.064 56.9579C195.064 55.4041 193.814 54.1445 192.272 54.1445C190.731 54.1445 189.481 55.4041 189.481 56.9579C189.481 58.5116 190.731 59.7712 192.272 59.7712Z" fill="#1E1B1B"/>
</g>
</svg>
