<svg width="225" height="127" viewBox="0 0 225 127" fill="none" xmlns="http://www.w3.org/2000/svg">
<path d="M52.2793 61.4787C51.801 61.9617 51.4347 62.5446 51.2065 63.1859C50.9783 63.8272 50.8938 64.5112 50.9591 65.189L50.9364 65.1662C51.0035 65.964 50.8963 66.767 50.6223 67.5189C50.3482 68.2709 49.914 68.9538 49.3499 69.52C48.7857 70.0862 48.1052 70.522 47.3559 70.797C46.6066 71.072 45.8066 71.1796 45.0116 71.1122L45.0343 71.135C44.0833 71.0462 43.1282 71.2539 42.2991 71.7298C41.4701 72.2057 40.8075 72.9266 40.4016 73.7943C39.9958 74.6619 39.8665 75.6341 40.0314 76.5782C40.1962 77.5223 40.6472 78.3924 41.3229 79.0699C41.9985 79.7474 42.8659 80.1992 43.8068 80.3638C44.7477 80.5284 45.7163 80.3978 46.5805 79.9897C47.4447 79.5816 48.1625 78.916 48.6359 78.0835C49.1094 77.2511 49.3154 76.2923 49.2261 75.338L49.2501 75.3608C49.183 74.563 49.2901 73.76 49.5642 73.008C49.8382 72.2561 50.2724 71.5732 50.8366 71.007C51.4007 70.4408 52.0812 70.005 52.8305 69.73C53.5798 69.455 54.3798 69.3474 55.1748 69.4148L55.1509 69.392C55.9277 69.4621 56.7096 69.3343 57.4241 69.0204C58.1386 68.7065 58.7625 68.2166 59.2382 67.5963C59.7138 66.9759 60.0257 66.2451 60.145 65.4715C60.2642 64.698 60.187 63.9067 59.9204 63.1711C59.6538 62.4355 59.2065 61.7793 58.62 61.2634C58.0334 60.7475 57.3266 60.3885 56.5649 60.2197C55.8033 60.051 55.0116 60.0779 54.2631 60.2979C53.5146 60.518 52.8336 60.9242 52.2831 61.4787H52.2793Z" fill="#1E1B1B"/>
<path d="M42.9678 68.1481L42.9439 68.1253C43.6196 68.1937 44.3019 68.1104 44.9417 67.8817C45.5814 67.6529 46.1624 67.2843 46.6428 66.8026C47.1232 66.3208 47.4909 65.738 47.7193 65.0961C47.9478 64.4543 48.0312 63.7695 47.9636 63.0913L47.9876 63.1141C47.9205 62.3163 48.0277 61.5134 48.3017 60.7614C48.5757 60.0094 49.01 59.3265 49.5741 58.7603C50.1383 58.1941 50.8188 57.7583 51.568 57.4833C52.3173 57.2083 53.1174 57.1008 53.9124 57.1681L53.8884 57.1453C54.8395 57.2349 55.7949 57.028 56.6245 56.5526C57.454 56.0773 58.1172 55.3567 58.5236 54.4891C58.9301 53.6216 59.06 52.6493 58.8956 51.705C58.7312 50.7606 58.2806 49.8901 57.6052 49.2123C56.9297 48.5344 56.0623 48.0821 55.1214 47.9172C54.1804 47.7522 53.2116 47.8826 52.3471 48.2905C51.4827 48.6984 50.7647 49.364 50.291 50.1965C49.8174 51.029 49.6111 51.9878 49.7004 52.9423L49.6777 52.9182C49.7451 53.7161 49.638 54.5192 49.3641 55.2713C49.0901 56.0233 48.6559 56.7063 48.0917 57.2726C47.5275 57.8388 46.8469 58.2746 46.0975 58.5495C45.3481 58.8244 44.548 58.9318 43.7529 58.8643L43.7757 58.8883C43.1 58.82 42.4176 58.9032 41.7779 59.132C41.1381 59.3608 40.5571 59.7294 40.0767 60.2111C39.5963 60.6928 39.2286 61.2757 39.0002 61.9176C38.7717 62.5594 38.6883 63.2442 38.7559 63.9223L38.7332 63.8995C38.8 64.6973 38.6927 65.5002 38.4186 66.252C38.1445 67.0039 37.7103 67.6867 37.1462 68.2529C36.5821 68.819 35.9017 69.2548 35.1525 69.5299C34.4033 69.8049 33.6033 69.9127 32.8084 69.8456L32.8311 69.8684C31.88 69.7787 30.9246 69.9857 30.0951 70.4611C29.2655 70.9364 28.6023 71.657 28.1959 72.5246C27.7894 73.3921 27.6595 74.3643 27.8239 75.3087C27.9883 76.2531 28.4389 77.1235 29.1144 77.8014C29.7898 78.4793 30.6572 78.9315 31.5982 79.0965C32.5392 79.2615 33.5079 79.1311 34.3724 78.7232C35.2368 78.3153 35.9548 77.6497 36.4285 76.8172C36.9022 75.9847 37.1084 75.0258 37.0191 74.0714L37.0431 74.0942C36.976 73.2963 37.0831 72.4934 37.3572 71.7414C37.6312 70.9894 38.0654 70.3065 38.6296 69.7403C39.1937 69.1742 39.8742 68.7384 40.6235 68.4634C41.3728 68.1884 42.1728 68.0808 42.9678 68.1481Z" fill="#1E1B1B"/>
<path d="M34.5087 65.6058C34.9871 65.1229 35.3534 64.54 35.5814 63.8986C35.8094 63.2573 35.8935 62.5733 35.8277 61.8956L35.8517 61.9183C35.7846 61.1203 35.8918 60.3171 36.166 59.5649C36.4401 58.8127 36.8746 58.1297 37.439 57.5635C38.0035 56.9973 38.6843 56.5615 39.4339 56.2867C40.1835 56.0119 40.9838 55.9046 41.779 55.9723L41.7551 55.9495C42.7058 56.0389 43.6608 55.8318 44.49 55.3565C45.3191 54.8812 45.982 54.1607 46.3882 53.2935C46.7944 52.4262 46.9242 51.4543 46.7598 50.5103C46.5954 49.5663 46.1449 48.6962 45.4697 48.0185C44.7945 47.3409 43.9275 46.8888 42.9868 46.7238C42.0462 46.5589 41.0778 46.6891 40.2136 47.0968C39.3494 47.5044 38.6316 48.1697 38.158 49.0018C37.6843 49.8339 37.478 50.7924 37.5671 51.7465L37.5443 51.7237C37.6114 52.5216 37.5043 53.3245 37.2302 54.0765C36.9562 54.8285 36.522 55.5114 35.9578 56.0775C35.3937 56.6437 34.7132 57.0795 33.9639 57.3545C33.2146 57.6295 32.4146 57.7371 31.6196 57.6697L31.6423 57.6925C30.8655 57.6226 30.0837 57.7506 29.3693 58.0647C28.6549 58.3787 28.0311 58.8687 27.5556 59.4891C27.0801 60.1095 26.7683 60.8403 26.6492 61.6139C26.5301 62.3874 26.6075 63.1786 26.8741 63.9141C27.1408 64.6497 27.5882 65.3057 28.1747 65.8216C28.7613 66.3374 29.4682 66.6963 30.2297 66.865C30.9913 67.0337 31.783 67.0067 32.5315 66.7866C33.2799 66.5665 33.9609 66.1604 34.5113 65.6058H34.5087Z" fill="#1E1B1B"/>
<path d="M73.6078 52.9717H77.3565V71.2797H73.6078V52.9717Z" fill="#1E1B1B"/>
<path d="M79.4797 65.011C79.4744 63.6953 79.8584 62.4077 80.5829 61.3112C81.3074 60.2147 82.3399 59.3586 83.5496 58.8515C84.7593 58.3444 86.0917 58.2089 87.3782 58.4624C88.6646 58.7158 89.8472 59.3467 90.776 60.2752C91.7049 61.2037 92.3383 62.3879 92.596 63.6779C92.8537 64.968 92.7241 66.3057 92.2236 67.5218C91.7231 68.7378 90.8743 69.7774 89.7846 70.5089C88.6949 71.2405 87.4134 71.6309 86.1025 71.631C85.2322 71.6409 84.3687 71.4767 83.5625 71.1479C82.7562 70.819 82.0234 70.3322 81.4067 69.7159C80.7901 69.0995 80.3021 68.366 79.9712 67.5582C79.6403 66.7503 79.4732 65.8844 79.4797 65.011ZM88.9765 65.011C88.9609 64.4439 88.779 63.894 88.4536 63.4301C88.1283 62.9661 87.6739 62.6087 87.1473 62.4025C86.6206 62.1963 86.0451 62.1505 85.4926 62.2708C84.9402 62.3911 84.4353 62.6722 84.0412 63.0789C83.647 63.4855 83.3811 63.9998 83.2765 64.5574C83.172 65.1149 83.2336 65.691 83.4536 66.2136C83.6735 66.7363 84.0421 67.1822 84.5133 67.4957C84.9844 67.8093 85.5372 67.9765 86.1025 67.9764C86.4896 67.9868 86.8747 67.9166 87.2334 67.7701C87.5922 67.6237 87.9168 67.4043 88.1868 67.1257C88.4569 66.847 88.6664 66.5153 88.8024 66.1513C88.9383 65.7874 88.9976 65.3991 88.9765 65.011Z" fill="#1E1B1B"/>
<path d="M107.666 58.7404V70.6476C107.666 74.8608 104.392 76.6418 101.068 76.6418C99.8983 76.7297 98.7266 76.4925 97.6819 75.9562C96.6373 75.4199 95.7599 74.6053 95.1461 73.6017L98.3446 71.7459C98.6026 72.2691 99.0136 72.7007 99.5227 72.983C100.032 73.2653 100.615 73.3848 101.193 73.3255C101.563 73.3769 101.94 73.3442 102.295 73.2299C102.651 73.1155 102.976 72.9224 103.247 72.6648C103.518 72.4071 103.728 72.0916 103.862 71.7416C103.995 71.3916 104.048 71.016 104.017 70.6426V69.4962C103.578 70.0352 103.019 70.4635 102.385 70.7466C101.752 71.0297 101.061 71.1598 100.368 71.1265C98.7192 71.0743 97.1554 70.3803 96.0076 69.1915C94.8597 68.0026 94.2179 66.4121 94.2179 64.7567C94.2179 63.1013 94.8597 61.5108 96.0076 60.322C97.1554 59.1331 98.7192 58.4391 100.368 58.387C101.061 58.3536 101.752 58.4837 102.385 58.7668C103.019 59.0499 103.578 59.4782 104.017 60.0172V58.7378L107.666 58.7404ZM104.018 64.7586C104.043 64.1523 103.887 63.5523 103.57 63.0358C103.252 62.5193 102.788 62.11 102.237 61.8606C101.686 61.6111 101.073 61.5329 100.477 61.636C99.8809 61.7391 99.3294 62.0188 98.8933 62.4392C98.4571 62.8595 98.1563 63.4012 98.0295 63.9946C97.9028 64.5879 97.9558 65.2058 98.1819 65.7686C98.408 66.3314 98.7967 66.8135 99.2981 67.1527C99.7995 67.4919 100.391 67.6728 100.995 67.6721C101.389 67.6997 101.784 67.6442 102.156 67.5091C102.527 67.3741 102.866 67.1625 103.15 66.8881C103.435 66.6136 103.66 66.2823 103.809 65.9156C103.958 65.5488 104.03 65.1547 104.018 64.7586Z" fill="#1E1B1B"/>
<path d="M109.789 65.011C109.784 63.6953 110.167 62.4077 110.892 61.3112C111.617 60.2147 112.649 59.3586 113.859 58.8515C115.068 58.3444 116.401 58.2089 117.687 58.4624C118.974 58.7158 120.156 59.3467 121.085 60.2752C122.014 61.2037 122.647 62.3879 122.905 63.6779C123.163 64.968 123.033 66.3057 122.533 67.5218C122.032 68.7378 121.183 69.7774 120.094 70.5089C119.004 71.2405 117.723 71.6309 116.412 71.631C115.541 71.6409 114.678 71.4767 113.872 71.1479C113.065 70.819 112.332 70.3322 111.716 69.7159C111.099 69.0995 110.611 68.366 110.28 67.5582C109.949 66.7503 109.782 65.8844 109.789 65.011ZM119.286 65.011C119.27 64.4439 119.088 63.894 118.763 63.4301C118.437 62.9661 117.983 62.6087 117.456 62.4025C116.93 62.1963 116.354 62.1505 115.802 62.2708C115.249 62.3911 114.744 62.6722 114.35 63.0789C113.956 63.4855 113.69 63.9998 113.586 64.5574C113.481 65.1149 113.543 65.691 113.763 66.2136C113.983 66.7363 114.351 67.1822 114.822 67.4957C115.293 67.8093 115.846 67.9765 116.412 67.9764C116.799 67.9868 117.184 67.9166 117.543 67.7701C117.901 67.6237 118.226 67.4043 118.496 67.1257C118.766 66.847 118.976 66.5153 119.111 66.1513C119.247 65.7874 119.307 65.3991 119.286 65.011Z" fill="#1E1B1B"/>
<path d="M124.783 55.3794C124.783 54.9329 124.915 54.4965 125.162 54.1253C125.409 53.7541 125.76 53.4647 126.171 53.2939C126.582 53.123 127.034 53.0783 127.471 53.1654C127.907 53.2525 128.308 53.4675 128.622 53.7832C128.937 54.0989 129.151 54.5011 129.238 54.939C129.325 55.3769 129.28 55.8308 129.11 56.2432C128.94 56.6557 128.651 57.0082 128.282 57.2563C127.912 57.5043 127.477 57.6367 127.032 57.6367C126.437 57.6308 125.869 57.391 125.448 56.969C125.028 56.5469 124.789 55.9762 124.783 55.3794ZM125.161 58.74H128.911V71.2806H125.156L125.161 58.74Z" fill="#1E1B1B"/>
<path d="M145.098 65.011C145.141 65.8398 145.021 66.669 144.744 67.451C144.467 68.2329 144.038 68.9522 143.483 69.5674C142.928 70.1826 142.257 70.6816 141.509 71.0358C140.761 71.3899 139.951 71.5922 139.125 71.6309C138.43 71.669 137.736 71.5514 137.092 71.2867C136.448 71.0221 135.871 70.6169 135.403 70.1007V76.2963H131.654V58.7407H135.403V59.9187C135.872 59.4029 136.449 58.9981 137.092 58.7337C137.736 58.4692 138.431 58.3518 139.125 58.3898C139.951 58.4284 140.762 58.6306 141.51 58.9847C142.258 59.3389 142.929 59.838 143.484 60.4534C144.039 61.0688 144.467 61.7883 144.744 62.5705C145.021 63.3526 145.142 64.1821 145.098 65.011ZM141.349 65.011C141.334 64.4241 141.148 63.8546 140.812 63.3737C140.476 62.8928 140.007 62.5219 139.462 62.3075C138.918 62.0931 138.322 62.0446 137.75 62.1682C137.179 62.2917 136.656 62.5818 136.247 63.0021C135.839 63.4225 135.563 63.9544 135.454 64.5312C135.346 65.1081 135.409 65.7043 135.636 66.2453C135.864 66.7863 136.245 67.2479 136.732 67.5725C137.22 67.8971 137.792 68.0702 138.377 68.0702C138.778 68.0881 139.179 68.0206 139.553 67.8722C139.927 67.7238 140.265 67.4977 140.546 67.2089C140.826 66.92 141.043 66.5749 141.182 66.1961C141.32 65.8173 141.377 65.4135 141.349 65.011Z" fill="#1E1B1B"/>
<path d="M156.666 67.5175C156.666 70.4019 154.168 71.6306 151.469 71.6306C150.379 71.7297 149.284 71.4983 148.326 70.9662C147.368 70.4342 146.592 69.626 146.096 68.6462L149.344 66.7904C149.475 67.2433 149.757 67.6373 150.143 67.9066C150.529 68.1759 150.996 68.3041 151.464 68.2699C152.363 68.2699 152.814 67.9938 152.814 67.4934C152.814 66.1127 146.665 66.8411 146.665 62.5025C146.665 59.7677 148.965 58.3895 151.564 58.3895C152.541 58.3584 153.508 58.591 154.365 59.0629C155.222 59.5348 155.937 60.2287 156.436 61.0724L153.238 62.8027C153.097 62.4743 152.864 62.1945 152.566 61.9983C152.269 61.8021 151.92 61.6981 151.564 61.6994C150.914 61.6994 150.514 61.9528 150.514 62.4012C150.519 63.8313 156.666 62.8775 156.666 67.5175Z" fill="#1E1B1B"/>
<path d="M170.36 58.7402V71.2809H166.611V70.1015C166.179 70.6219 165.629 71.0319 165.008 71.2979C164.387 71.564 163.712 71.6784 163.039 71.6318C160.515 71.6318 158.369 69.8267 158.369 66.4382V58.7402H162.118V65.8871C162.086 66.1858 162.12 66.4878 162.217 66.772C162.313 67.0562 162.471 67.3158 162.678 67.5328C162.884 67.7498 163.136 67.919 163.415 68.0286C163.693 68.1381 163.992 68.1855 164.291 68.1672C165.666 68.1672 166.615 67.3654 166.615 65.5844V58.744L170.36 58.7402Z" fill="#1E1B1B"/>
<path d="M191.855 63.5808V71.28H188.106V63.9063C188.106 62.6523 187.507 61.8504 186.308 61.8504C185.058 61.8504 184.358 62.7283 184.358 64.2078V71.28H180.61V63.9063C180.61 62.6523 180.011 61.8504 178.81 61.8504C177.561 61.8504 176.861 62.7283 176.861 64.2078V71.28H173.113V58.7393H176.861V59.892C177.25 59.3807 177.76 58.9751 178.345 58.7124C178.93 58.4498 179.571 58.3384 180.21 58.3884C180.852 58.357 181.49 58.4928 182.064 58.7827C182.637 59.0727 183.126 59.5068 183.483 60.0428C183.898 59.482 184.449 59.0362 185.082 58.7468C185.716 58.4575 186.413 58.3342 187.107 58.3884C189.976 58.3897 191.855 60.4456 191.855 63.5808Z" fill="#1E1B1B"/>
<path d="M195.026 58.6628C196.562 58.6628 197.807 57.4129 197.807 55.871C197.807 54.3291 196.562 53.0791 195.026 53.0791C193.489 53.0791 192.244 54.3291 192.244 55.871C192.244 57.4129 193.489 58.6628 195.026 58.6628Z" fill="#1E1B1B"/>
</svg>
