<svg width="46" height="46" viewBox="0 0 46 46" fill="none" xmlns="http://www.w3.org/2000/svg">
<path d="M22.9999 7.66699C14.5452 7.66699 7.6665 14.5457 7.6665 23.0004C7.6665 31.455 14.5452 38.3337 22.9999 38.3337C31.4545 38.3337 38.3332 31.455 38.3332 23.0004C38.3332 14.5457 31.4545 7.66699 22.9999 7.66699ZM30.8444 13.3945C31.0166 13.2027 31.2599 13.0894 31.5182 13.0792C31.7409 13.0539 32.0274 13.1625 32.2145 13.3403C34.2023 15.2223 35.5537 17.6182 36.1189 20.2686C36.2088 20.6915 36.0047 21.1221 35.621 21.3205C34.6832 21.8053 33.5696 22.0401 32.5027 22.0401C31.112 22.0401 29.7943 21.6414 29.0306 20.8777C27.406 19.254 28.0835 16.4568 30.8444 13.3945ZM15.1554 32.7559C14.9832 32.9477 14.7399 33.0619 14.4816 33.0722C14.4704 33.0731 14.4573 33.0731 14.4441 33.0731C14.199 33.0731 13.9631 32.9795 13.7853 32.811C11.7975 30.929 10.4461 28.5331 9.88088 25.8818C9.79104 25.4588 9.99507 25.0283 10.3788 24.8299C12.5388 23.7153 15.6197 23.923 16.9692 25.2726C18.592 26.8964 17.9144 29.6937 15.1554 32.7559ZM16.9691 20.8778C16.2054 21.6415 14.8877 22.0402 13.497 22.0402C12.4301 22.0402 11.3183 21.8053 10.3787 21.3205C9.99498 21.1222 9.79095 20.6916 9.88079 20.2687C10.4461 17.6183 11.7974 15.2224 13.7852 13.3404C13.9724 13.1626 14.2476 13.0521 14.4815 13.0793C14.7398 13.0896 14.9831 13.2028 15.1553 13.3946C17.9162 16.4568 18.5938 19.2541 16.9691 20.8778ZM27.084 35.7797C25.7569 36.2027 24.383 36.4171 22.9999 36.4171C21.6167 36.4171 20.2427 36.2028 18.9158 35.7797C18.4946 35.645 18.2195 35.2407 18.2494 34.7999C18.489 31.3512 20.531 28.7504 22.9999 28.7504C25.4687 28.7504 27.5107 31.3512 27.7504 34.7998C27.7803 35.2407 27.5052 35.645 27.084 35.7797ZM19.1665 23.0004C19.1665 20.8862 20.8867 19.167 22.9999 19.167C25.1131 19.167 26.8332 20.8862 26.8332 23.0004C26.8332 25.1146 25.1131 26.8337 22.9999 26.8337C20.8867 26.8337 19.1665 25.1145 19.1665 23.0004ZM27.7504 11.2766C27.5107 14.7244 25.4687 17.3252 22.9999 17.3252C20.531 17.3252 18.489 14.7244 18.2494 11.2766C18.2195 10.8359 18.4927 10.4316 18.9139 10.2977C21.568 9.44976 24.4318 9.44976 27.0859 10.2977C27.5071 10.4316 27.7803 10.8359 27.7504 11.2766ZM36.1189 25.7294C35.5536 28.3806 34.2023 30.7765 32.2145 32.6586C32.0367 32.827 31.8009 32.9206 31.5557 32.9206C31.5426 32.9206 31.5295 32.9206 31.5182 32.9197C31.2599 32.9094 31.0166 32.7962 30.8444 32.6044C28.0836 29.5422 27.406 26.744 29.0306 25.1202C30.3802 23.7698 33.4592 23.5648 35.621 24.6776C36.0047 24.8758 36.2088 25.3064 36.1189 25.7294Z" fill="white"/>
<path d="M23 0C10.317 0 0 10.318 0 23C0 35.682 10.317 46 23 46C35.683 46 46 35.682 46 23C46 10.318 35.683 0 23 0ZM23 40.25C13.4878 40.25 5.75 32.5113 5.75 23C5.75 13.4887 13.4878 5.75 23 5.75C32.5122 5.75 40.25 13.4887 40.25 23C40.25 32.5113 32.5122 40.25 23 40.25Z" fill="white"/>
</svg>
